<svg xmlns="http://www.w3.org/2000/svg" xmlns:xlink="http://www.w3.org/1999/xlink" width="500" zoomAndPan="magnify" viewBox="0 0 375 374.999991" height="500" preserveAspectRatio="xMidYMid meet" version="1.0"><defs><g/></defs><rect x="-37.5" width="450" fill="#ffffff" y="-37.499999" height="449.999989" fill-opacity="1"/><rect x="-37.5" width="450" fill="#ffffff" y="-37.499999" height="449.999989" fill-opacity="1"/><g fill="#000000" fill-opacity="1"><g transform="translate(170.145829, 190.874987)"><g><path d="M 6.703125 -13.203125 L 6.703125 -3.734375 C 6.703125 -2.441406 6.347656 -1.457031 5.640625 -0.78125 C 4.929688 -0.101562 3.914062 0.234375 2.59375 0.234375 C 2.238281 0.234375 1.890625 0.191406 1.546875 0.109375 C 1.210938 0.0234375 0.925781 -0.078125 0.6875 -0.203125 C 0.457031 -0.328125 0.25 -0.453125 0.0625 -0.578125 C -0.125 -0.703125 -0.265625 -0.804688 -0.359375 -0.890625 L -0.5 -1.03125 L 0.46875 -3.53125 C 1.09375 -2.9375 1.660156 -2.640625 2.171875 -2.640625 C 2.628906 -2.640625 3 -2.789062 3.28125 -3.09375 C 3.5625 -3.394531 3.703125 -3.863281 3.703125 -4.5 L 3.703125 -13.203125 Z M 6.703125 -13.203125 "/></g></g></g><g fill="#000000" fill-opacity="1"><g transform="translate(177.648025, 190.874987)"><g><path d="M 3.96875 -13.203125 L 3.96875 -2.640625 L 8.515625 -2.640625 L 8.515625 0 L 0.953125 0 L 0.953125 -13.203125 Z M 3.96875 -13.203125 "/></g></g></g><g fill="#000000" fill-opacity="1"><g transform="translate(186.685859, 190.874987)"><g><path d="M 12.96875 0 L 8.828125 0 L 3.96875 -5.59375 L 3.96875 0 L 0.953125 0 L 0.953125 -13.203125 L 3.96875 -13.203125 L 3.96875 -7.8125 L 8.5 -13.203125 L 12.140625 -13.203125 L 6.828125 -6.9375 Z M 12.96875 0 "/></g></g></g><g fill="#000000" fill-opacity="1"><g transform="translate(199.27484, 190.874987)"><g><path d="M 2.78125 -3.421875 C 3.289062 -3.421875 3.722656 -3.242188 4.078125 -2.890625 C 4.441406 -2.535156 4.625 -2.097656 4.625 -1.578125 C 4.625 -1.078125 4.441406 -0.648438 4.078125 -0.296875 C 3.722656 0.0546875 3.289062 0.234375 2.78125 0.234375 C 2.28125 0.234375 1.847656 0.0546875 1.484375 -0.296875 C 1.128906 -0.648438 0.953125 -1.078125 0.953125 -1.578125 C 0.953125 -2.097656 1.128906 -2.535156 1.484375 -2.890625 C 1.847656 -3.242188 2.28125 -3.421875 2.78125 -3.421875 Z M 2.78125 -3.421875 "/></g></g></g></svg>