<svg xmlns="http://www.w3.org/2000/svg" xmlns:xlink="http://www.w3.org/1999/xlink" width="500" zoomAndPan="magnify" viewBox="0 0 375 374.999991" height="500" preserveAspectRatio="xMidYMid meet" version="1.0"><defs><g/></defs><rect x="-37.5" width="450" fill="#ffffff" y="-37.499999" height="449.999989" fill-opacity="1"/><rect x="-37.5" width="450" fill="#ffffff" y="-37.499999" height="449.999989" fill-opacity="1"/><g fill="#000000" fill-opacity="1"><g transform="translate(68.161457, 217.124986)"><g><path d="M 46.078125 -90.734375 L 46.078125 -25.625 C 46.078125 -16.75 43.640625 -9.984375 38.765625 -5.328125 C 33.890625 -0.671875 26.90625 1.65625 17.8125 1.65625 C 15.394531 1.65625 13.015625 1.359375 10.671875 0.765625 C 8.328125 0.179688 6.347656 -0.53125 4.734375 -1.375 C 3.117188 -2.21875 1.664062 -3.078125 0.375 -3.953125 C -0.90625 -4.835938 -1.835938 -5.570312 -2.421875 -6.15625 L -3.40625 -7.03125 L 3.1875 -24.3125 C 7.507812 -20.195312 11.429688 -18.140625 14.953125 -18.140625 C 18.109375 -18.140625 20.640625 -19.1875 22.546875 -21.28125 C 24.453125 -23.375 25.40625 -26.582031 25.40625 -30.90625 L 25.40625 -90.734375 Z M 46.078125 -90.734375 "/></g></g></g><g fill="#000000" fill-opacity="1"><g transform="translate(119.742264, 217.124986)"><g><path d="M 27.28125 -90.734375 L 27.28125 -18.140625 L 58.515625 -18.140625 L 58.515625 0 L 6.59375 0 L 6.59375 -90.734375 Z M 27.28125 -90.734375 "/></g></g></g><g fill="#000000" fill-opacity="1"><g transform="translate(181.881183, 217.124986)"><g><path d="M 89.203125 0 L 60.71875 0 L 27.28125 -38.5 L 27.28125 0 L 6.59375 0 L 6.59375 -90.734375 L 27.28125 -90.734375 L 27.28125 -53.671875 L 58.40625 -90.734375 L 83.484375 -90.734375 L 46.96875 -47.734375 Z M 89.203125 0 "/></g></g></g><g fill="#000000" fill-opacity="1"><g transform="translate(268.43575, 217.124986)"><g><path d="M 19.140625 -23.53125 C 22.660156 -23.53125 25.644531 -22.300781 28.09375 -19.84375 C 30.550781 -17.394531 31.78125 -14.410156 31.78125 -10.890625 C 31.78125 -7.441406 30.550781 -4.488281 28.09375 -2.03125 C 25.644531 0.425781 22.660156 1.65625 19.140625 1.65625 C 15.691406 1.65625 12.738281 0.425781 10.28125 -2.03125 C 7.820312 -4.488281 6.59375 -7.441406 6.59375 -10.890625 C 6.59375 -14.410156 7.820312 -17.394531 10.28125 -19.84375 C 12.738281 -22.300781 15.691406 -23.53125 19.140625 -23.53125 Z M 19.140625 -23.53125 "/></g></g></g></svg>